<?xml version="1.0" encoding="UTF-8"?>
<svg id="Calque_1" xmlns="http://www.w3.org/2000/svg" version="1.1" viewBox="0 0 743 259">
  <!-- Generator: Adobe Illustrator 29.0.1, SVG Export Plug-In . SVG Version: 2.1.0 Build 192)  -->
  <defs>
    <style>
      .st0 {
        fill: none;
      }

      .st1 {
        fill: #007cbd;
      }

      .st2 {
        fill: #3b1b12;
      }
    </style>
  </defs>
  <path class="st0" d="M-53-34h848.7v340H-53V-34Z"/>
  <path class="st0" d="M-53-34h848.7v340H-53V-34Z"/>
  <path class="st2" d="M238.9,195.6h12.2c2.2,0,4.2.8,5.8,2.4,1.7,1.7,2.5,3.6,2.5,5.9v2.9c0,2-.7,3.6-2.2,5.1-1.5,1.5-3.1,2.2-5.2,2.2h-13.3v-18.5ZM254.1,179c-1.3,1.4-3.1,2-5.4,2h-9.8v-13.7h10.8c1.9,0,3.2.5,4.5,1.8,1.3,1.3,1.9,2.7,1.9,4.5s-.6,3.9-2,5.4ZM266.3,186.9c2.9-3.8,4.3-8.2,4.3-13.2s-2.1-10.6-6.2-14.7c-4-4.1-8.9-6.1-14.8-6.1h-20.5c-2.9,0-4.9,2-4.9,4.9v66.2c0,2.8,2.1,4.9,4.9,4.9h22.9c6,0,11.2-2.2,15.4-6.4,4.3-4.3,6.5-9.5,6.5-15.4v-2.9c0-4.3-1.2-8.4-3.6-12.2-1.1-1.8-2.5-3.5-4.1-4.9h0ZM300.7,177.4c0-3.1,1-5.6,3.3-7.9,2.1-2.1,4.7-3.2,7.8-3.2s5.7,1,7.8,3.2c2.2,2.2,3.3,4.8,3.3,7.9v27c0,3.2-1,5.6-3.3,7.8-2.2,2.2-4.8,3.3-7.8,3.3s-5.6-1.1-7.8-3.3c-2.2-2.1-3.2-4.6-3.2-7.8v-27h0ZM311.8,151.7c-7,0-13.1,2.5-18.1,7.5-5,5-7.5,11.1-7.5,18.1v27c0,7,2.5,13.1,7.5,18.1,5,5,11.1,7.5,18.1,7.5s13.1-2.5,18.1-7.5c5-5,7.5-11.1,7.5-18.1v-27c0-7-2.5-13.1-7.5-18.1-5-5-11.1-7.5-18.1-7.5h0ZM442.7,214.1h-9.1v-46.8h6.7c3.6,0,6.6,1.2,9,3.8,2.6,2.6,3.9,5.5,3.9,9v23.6c0,3-1,5.3-3.1,7.3-2.1,2.1-4.4,3.1-7.3,3.1h0ZM440.3,152.8h-16.3c-2.9,0-4.9,2-4.9,4.9v66.2c0,2.8,2.1,4.9,4.9,4.9h18.8c6.9,0,12.8-2.5,17.7-7.3,4.9-4.9,7.3-10.8,7.3-17.7v-23.6c0-7.5-2.7-14-8.1-19.4-5.3-5.3-11.8-8-19.4-8h0ZM521.9,214.1h-24.2v-18.6h20.1c2.7,0,4.8-2.1,4.8-4.9v-4.8c0-2.9-2-4.9-4.8-4.9h-20.1v-13.6h23.5c2.8,0,4.9-2.1,4.9-4.9v-4.8c0-2.8-2.1-4.9-4.9-4.9h-33.2c-2.9,0-4.9,2-4.9,4.9v66.2c0,2.8,2.1,4.9,4.9,4.9h33.8c2.8,0,4.9-2.1,4.9-4.9v-4.8c0-2.8-2.1-4.9-4.9-4.9h0ZM572.6,191.4h-10.8l5.4-18.2,5.4,18.2ZM576.2,156.2c-.7-2.1-2.5-3.4-4.6-3.4h-8.8c-2.2,0-3.9,1.3-4.6,3.5l-20.1,65.6c-.3.6-.4,1.3-.4,1.9,0,2.8,2.1,4.9,4.9,4.9h5c2.3,0,4.1-1.4,4.6-3.5l5.9-19.3h18.1l5.9,19.4v.3c.9,1.9,2.6,3.1,4.7,3.1h5c2.8,0,4.9-2.1,4.9-4.9s-.1-1.4-.4-1.8l-20.1-65.9h0ZM651,152.8h-4.8c-2.8,0-4.9,2.1-4.9,4.9v48.3c0,2.8-.9,4.9-2.7,6.7-1.9,1.9-4.1,2.8-6.7,2.8s-4.8-.9-6.7-2.9c-1.8-1.8-2.8-4-2.8-6.6v-48.3c0-2.9-2-4.9-4.9-4.9h-4.8c-2.8,0-4.9,2.1-4.9,4.9v48.3c0,6.6,2.4,12.3,7,17,4.7,4.7,10.4,7,17,7s12.3-2.4,17-7.1c4.6-4.7,6.9-10.4,6.9-17v-48.3c0-2.9-2-4.9-4.9-4.9h0ZM701.4,190.6l17-31,.3-.9c.5-2.1-.2-3.4-.9-4.3-.5-.7-1.7-1.7-3.8-1.7h-4.9c-2,0-3.7,1.1-4.3,2.8l-11.3,20.6-11.3-20.5c-.7-1.8-2.4-2.9-4.4-2.9h-4.9c-2.1,0-3.3,1.1-3.8,1.7-.7.8-1.3,2.2-.8,4.4l.3.9,16.9,30.9-16.9,30.8-.3.6c-.7,2.2.1,3.8.7,4.5.5.7,1.7,1.9,4,1.9h5c1.9,0,3.6-1.1,4.4-2.9l11.1-20.4,11.1,20.3c.8,1.8,2.5,2.9,4.4,2.9h5c2.2,0,3.4-1.2,4-1.9.5-.7,1.3-2.2.6-4.6l-17.1-31.4h0ZM386.2,174.2v3.8c0,1.9-.6,3.3-2.1,4.8-1.5,1.4-2.9,2.1-4.8,2.1h-11.7v-17.5h11.7c1.9,0,3.5.6,4.7,1.9,1.5,1.6,2.1,3,2.1,5h0ZM403.1,221.9l-13.2-25.2c1.7-1,3.3-2.2,4.7-3.6,4.2-4.2,6.3-9.3,6.3-15.1v-3.8c0-5.9-2.1-11-6.3-15.2-4.1-4.1-9.2-6.2-15.1-6.2h-21.3c-2.9,0-4.9,2-4.9,4.9v66.2c0,2.8,2.1,4.9,4.9,4.9h4.8c2.8,0,4.9-2.1,4.9-4.9v-24.4h7.8l13.6,26.1c.8,1.9,2.5,3,4.4,3h5c2.2,0,3.5-1.2,4-1.9.5-.7,1.3-2.3.7-4.5,0,0,0-.1,0-.2h0ZM179,170.7c0-1.5-.5-2.7-1.6-3.7-1.1-1.1-2.3-1.6-3.7-1.6s-2.8.5-3.8,1.6c-1,1-1.6,2.3-1.6,3.7v6.8c0,1.5.5,2.7,1.6,3.8,1,1,2.3,1.6,3.8,1.6s2.7-.5,3.7-1.6c1.1-1.1,1.6-2.3,1.6-3.8v-6.8ZM181.8,185.4h-1.5c-.4,0-.5-.2-.5-.5v-.4c0-.4-.2-.5-.5-.5s-.2,0-.3,0c-1.6,1.3-3.4,1.9-5.4,1.9s-4.4-.8-6.1-2.5c-1.7-1.7-2.5-3.7-2.5-6.1v-6.8c0-2.4.8-4.4,2.5-6.1,1.6-1.7,3.7-2.5,6.1-2.5s3.2.4,4.5,1.3c0,0,.2,0,.4,0,.3,0,.4-.1.4-.4v-9.5c0-.4.2-.5.5-.5h2.3c.3,0,.4.1.4.5v31.3c0,.3-.1.5-.4.5h0ZM200.8,170.3c0-1.3-.4-2.5-1.4-3.5-1-1-2.1-1.4-3.5-1.4s-2.5.4-3.4,1.4c-1,1-1.5,2.1-1.5,3.5v1.5c0,.3.2.5.5.5h8.9c.3,0,.4-.2.4-.5v-1.5ZM203.7,175.5h-12.1c-.3,0-.5.2-.5.5v1.4c0,1.5.5,2.8,1.6,3.8,1.1,1.1,2.3,1.6,3.8,1.6s3.6-.5,5.1-1.6c.2-.2.4-.1.6,0l1.3,1.9c.2.2.1.5-.1.7-2,1.5-4.3,2.2-6.9,2.2s-4.4-.8-6.1-2.5c-1.7-1.7-2.5-3.7-2.5-6.1v-7.1c0-2.3.8-4.2,2.4-5.8,1.6-1.6,3.5-2.4,5.7-2.4s4.2.8,5.8,2.4c1.6,1.6,2.4,3.5,2.4,5.7v4.8c0,.3-.1.5-.4.5h0ZM34.2,84.6v22.7c0,4.3,1.5,7.9,4.6,11,3.1,3.1,6.6,4.6,11,4.6s7.9-1.5,10.9-4.6c3.1-3.1,4.7-6.8,4.7-11v-49.1c0-1,.4-1.5,1.5-1.5h7.6c1,0,1.6.4,1.6,1.5v49.1c0,7.2-2.6,13.4-7.8,18.5-5.1,5.1-11.3,7.8-18.5,7.8s-13.5-2.6-18.7-7.8c-5.1-5.1-7.6-11.3-7.6-18.5v-11.7l10.7-11h0ZM246.6,75l-12.1,33.5c-.3.6-.6.7-1.2.7s-.9-.1-1-.7l-18.2-50.3c-.4-1-1-1.6-1.9-1.6h-7.9c-1.5,0-2.1.9-1.5,2.4l26,71.5c.3.9.7,1.5,1.6,1.5h6c.7,0,1.3-.6,1.6-1.4l17.6-48.6-9-6.9h0ZM357.8,86.4v43.7c0,1-.6,1.6-1.6,1.6h-7.5c-1,0-1.6-.6-1.6-1.6v-31.2l10.7-12.5ZM426.6,68.3c-4.5-1.7-9.3-2.6-14.4-2.6s-5.1.9-7.2,2.9c-1.9,1.9-2.8,4.3-2.8,7.1,0,4.8,2.4,7.9,7.2,9.3l15.4,4.1c5.1,1.3,9.1,4.1,12.2,8.1,2.9,4,4.6,8.5,4.6,13.5s-2.3,11.9-6.9,16.5c-4.6,4.4-10,6.8-16.3,6.8-10.7,0-20.7-2.6-29.7-8.1-1-.6-1.2-1.3-.6-2.4l3.8-6.5c.4-.9,1.2-.9,2.1-.4,7.5,4.4,15.7,6.6,24.4,6.6s6.3-1.2,8.8-3.7c2.4-2.4,3.7-5.3,3.7-8.8s-.9-4.9-2.5-7.1c-1.6-2.2-3.7-3.4-6.2-4.1l-15.6-4.3c-4.6-1.2-8.2-3.7-11-7.3-2.8-3.7-4.1-7.8-4.1-12.2s1.9-10.6,6-14.7c4.1-4.1,9-6,14.7-6s12.6,1.1,18.5,3.4l-4.1,9.9h0ZM470.7,131.5h-7.5c-1.2,0-1.6-.6-1.6-1.6V58.2c0-1,.4-1.5,1.6-1.5h7.5c1,0,1.6.4,1.6,1.5v71.7c0,1-.6,1.6-1.6,1.6ZM472,41c-1.3,1.5-3.1,2.2-5.1,2.2s-3.7-.7-5-2.2c-1.5-1.3-2.2-3.1-2.2-5s.7-3.8,2.2-5.1c1.3-1.5,3.1-2.1,5-2.1s3.8.6,5.1,2.1c1.5,1.3,2.2,3.1,2.2,5.1s-.7,3.7-2.2,5ZM592.7,81.4c0-4.4-1.5-8.2-4.7-11.5-3.2-3.2-7.1-4.7-11.5-4.7s-8.2,1.5-11.3,4.7c-3.2,3.2-4.9,7.1-4.9,11.5v5c0,1,.6,1.6,1.6,1.6h29.2c1,0,1.5-.6,1.5-1.6v-5h0ZM602,98.8h-40c-1,0-1.6.6-1.6,1.6v4.6c0,5,1.8,9.1,5.1,12.5,3.5,3.5,7.6,5.3,12.5,5.3s11.8-1.8,16.8-5.3c.7-.6,1.5-.4,2.1.3l4.4,6.3c.6.7.4,1.6-.4,2.2-6.6,4.8-14.3,7.2-22.8,7.2s-14.4-2.8-20-8.4c-5.6-5.6-8.4-12.2-8.4-20.1v-23.5c0-7.5,2.6-13.8,7.9-19.1,5.3-5.1,11.6-7.8,19-7.8s13.8,2.6,19.1,7.9c5.3,5.3,7.8,11.6,7.8,19v15.7c0,1-.4,1.6-1.5,1.6h0Z"/>
  <path class="st1" d="M586.2,23.8c-1.5,1.9-3.2,4.9-4.8,6.8-1.9,1.6-4.4,5.6-6.2,7.1,0,.4-1.1,1.6-1.1,1.6-.6,1.8-1.1,1.4-2,2.1-1.4,1.4-2.9,1.5-3.9.8-2.1-1.4,1.4-6.3,3.2-8.3.3-.4.3-.6.3-1,.5-.9.9-1.9,1.4-2.6.5-.5.9-.5,1.3-.8-.1-.9,1-2.1,1.3-2.9.6-.8.4-2,1.1-2.8,1-.9,1.3-1.5,1.8-2.6.5,0,1.3-.9,1.3-.9.3-1.1.5-2.4,1-3.4,0,0,.4-.5.6-.5,1-1.1,1.1-2.9,2.1-3.9.8-.5,2.3-.8,3.3-.5,1.8.5,3.8,1.3,5.3,3.5.3,3.7-3.5,6.1-5.8,8.3h0ZM369.4,55c-4.9,0-7.8,2.4-11.4,8.4h0v-6.9h-19.7v6h5.2c2.6,0,3.4.8,3.4,3.4l.3,32.9,10.7-12.5v-13c.1-5.9,3.9-13.4,11.4-13.4s2.8.2,3.8,1.3c-3.3,0-6,2-6,5.5s2.9,5.8,6.5,5.8,6.9-3.5,6.9-7.6c0-6.7-5.2-10-11.1-10h0ZM430.7,58.4c3.4,0,6-2.1,7.6-6h6.1v38.8h-7.1c-1.2-9.8-4.9-17.1-10.7-22.9,0,0,4.1-9.9,4.1-9.9ZM175.5,28.8h10.5v13.6h-10.5v-13.6Z"/>
  <path class="st2" d="M186,78.8v51.3c0,1-.6,1.6-1.6,1.6h-7.5c-1.2,0-1.6-.6-1.6-1.6v-51.3h10.7Z"/>
  <path class="st1" d="M184.5,51.4c-3.6,6.9-7.3,8.1-17.5,9v3.5c2.6,0,6.9-.2,8,3.1.4,1.2.3-.1.3,11.9h10.7c0-12,.4-19.7,1.5-27.4h-3,0ZM263,61.2c4.8,0,4.8.2,6.3.2s2.3-1.1,2.3-2.7-1.2-2.6-2.3-2.6c-1.5,0-2.4.8-12.2.8h-.5c-10.2,0-10.5-.8-12-.8s-2.4,1.1-2.4,2.6,1.2,2.7,2.4,2.7,1.7-.2,6.8-.2l-4.9,13.8,9,6.9,7.5-20.7h0Z"/>
  <path class="st2" d="M319.2,81.6c0-4.4-1.5-8.2-4.7-11.5-3.2-3.2-7.1-4.7-11.5-4.7s-8.2,1.5-11.3,4.7c-3.2,3.2-4.8,7.1-4.8,11.5v5c0,1,.6,1.6,1.6,1.6h29.2c1,0,1.5-.6,1.5-1.6v-5h0ZM276.1,101v-19.4c0-7.5,2.6-13.8,7.9-19.1,5.3-5.1,11.6-7.8,19-7.8s13.8,2.6,19.1,7.9c5.3,5.3,7.8,11.6,7.8,19v15.7c0,1-.4,1.6-1.5,1.6h-40c-1,0-1.6.6-1.6,1.6v4.6c0,1.3.1,2.6.4,3.8l-11.1-8h0Z"/>
  <path class="st1" d="M297.6,121.6c5.3,3.3,11.6,4.6,16.9,4.6,10.5,0,15.3-3.8,16.2-3.8s.8,1,.8,1.3c0,.8-12.1,10.2-25,10.2s-30.4-6.3-30.4-32.9l11.1,8c2.1,5.9,5.9,10,10.4,12.7h0Z"/>
  <path class="st2" d="M511.3,76.7v30.1c0,4.7,1.6,8.7,4.8,11.9,3.2,3.2,7.2,4.8,11.9,4.8s7.8-1.2,11.8-3.7c1-.6,1.6-.4,2.3.4l4.3,6c.6.9.4,1.6-.4,2.2-5.3,3.8-11.3,5.7-17.9,5.7s-14-2.6-19.4-8.1c-5.4-5.4-8.1-11.8-8.1-19.4v-33.8l10.7,3.7h0Z"/>
  <path class="st1" d="M500.5,73v-5.7c-3.7-.3-8.2,0-11.7,1.4l-1-.7c1.7-4.8,7.1-8.1,12.5-8.1,2.4-1.4,2.3-14.6,4.2-17,.8-1,3.7-2.8,5.8-4.7,1,1.6-1.7,20.4,1,20.8,9.6,1.7,19.6,2.1,28.7-.7,1.8,1.4,0,3.1-.8,4.4-7.6,7.1-18,4.1-27.9,4.4v9.6s-10.7-3.7-10.7-3.7ZM34.2,56.8H13.2v8h10.3v30.8l10.7-11s0-27.8,0-27.8Z"/>
  <path class="st2" d="M141.1,111.4v-30.2c0-4.3-1.5-7.9-4.6-10.9-3.1-3.1-6.8-4.6-11-4.6s-7.9,1.5-11,4.6c-2.9,2.9-4.6,6.6-4.6,10.9v49.1c0,1-.4,1.6-1.6,1.6h-7.5c-1,0-1.6-.6-1.6-1.6v-49.1c0-7.2,2.6-13.4,7.8-18.5,5.1-5.1,11.3-7.6,18.5-7.6s13.4,2.5,18.5,7.6c5.1,5.1,7.8,11.3,7.8,18.5v24.3l-10.7,5.9h0Z"/>
  <path class="st1" d="M153.2,126.9c-1.1-3.3-1.4-13.2-1.4-21.4l-10.7,5.9.2,11.5c0,4.8,1.2,8.8,2.2,11.9,6.5-2.4,12.4-4.5,19.2-6.2v-3.8c-3.4,1.2-6.6,1.9-9.5,2h0Z"/>
</svg>